<svg width="112" height="64" viewBox="0 0 112 64" fill="none" xmlns="http://www.w3.org/2000/svg">
<path d="M7.6 4.4L13.2 0H111.2V64H0V10L7.6 4.4Z" fill="white" fill-opacity="0.5"/>
<path d="M8.73092 5.93482L8.75467 5.91732L8.77786 5.8991L13.8594 1.90647H109.294V62.0935H1.90647V10.9634L8.73092 5.93482Z" stroke="#FFB005" stroke-opacity="0.5" stroke-width="3.81295"/>
<path d="M31.296 19.88H40.352V22.952H31.296V19.88ZM38.848 19.88H41.952C41.952 25.768 42.752 37.736 55.04 45C54.336 45.544 53.12 46.856 52.576 47.592C40.064 40.04 38.848 26.12 38.848 19.88ZM37.728 26.472L41.184 27.112C38.912 36.744 34.688 43.56 27.776 47.656C27.232 47.016 25.824 45.768 25.024 45.192C31.936 41.64 35.872 35.272 37.728 26.472ZM66.656 31.048H86.88V33.64H66.656V31.048ZM70.208 35.56H83.808V37.992H70.208V35.56ZM71.616 32.008L74.24 32.68C72.608 36.296 69.696 39.464 66.72 41.448C66.272 40.936 65.28 40.008 64.672 39.592C67.616 37.864 70.24 35.144 71.616 32.008ZM83.296 35.56H86.144C86.144 35.56 86.112 36.296 86.048 36.68C85.568 43.144 85.056 45.704 84.192 46.632C83.648 47.272 83.008 47.464 82.208 47.56C81.504 47.624 80.288 47.656 79.008 47.592C78.976 46.856 78.72 45.8 78.336 45.16C79.456 45.256 80.416 45.288 80.864 45.288C81.312 45.288 81.568 45.224 81.824 44.936C82.4 44.328 82.88 41.992 83.296 36.008V35.56ZM72.384 25.224V27.336H81.792V25.224H72.384ZM72.384 21.064V23.144H81.792V21.064H72.384ZM69.664 18.888H84.608V29.512H69.664V18.888ZM57.568 24.84H67.168V27.72H57.568V24.84ZM61.088 18.312H63.936V38.088H61.088V18.312ZM56.896 39.08C59.36 38.12 63.2 36.456 66.88 34.792L67.52 37.416C64.288 39.08 60.8 40.808 58.048 42.12L56.896 39.08ZM79.392 36.04L81.472 37.16C80.288 41.128 77.6 45.608 74.72 47.816C74.208 47.24 73.28 46.536 72.512 46.12C75.584 44.136 78.24 39.88 79.392 36.04ZM74.464 36.104L76.48 37.288C74.88 40.712 71.52 44.456 68.416 46.44C67.936 45.8 67.136 45.064 66.432 44.616C69.568 42.952 72.896 39.368 74.464 36.104Z" fill="#303030"/>
</svg>
