<svg width="322" height="165" viewBox="0 0 322 165" fill="none" xmlns="http://www.w3.org/2000/svg">
<g filter="url(#filter0_d_127_1066)">
<path fill-rule="evenodd" clip-rule="evenodd" d="M161 0H38L4 32.5V78.5V157H245.764C245.289 156.469 245 155.768 245 155C245 153.343 246.343 152 248 152C249.657 152 251 153.343 251 155C251 155.768 250.711 156.469 250.236 157H318V0H250.236C250.711 0.530756 251 1.23165 251 2C251 3.65685 249.657 5 248 5C246.343 5 245 3.65685 245 2C245 1.23165 245.289 0.530756 245.764 0H161ZM251 10.5C251 12.1569 249.657 13.5 248 13.5C246.343 13.5 245 12.1569 245 10.5C245 8.84315 246.343 7.5 248 7.5C249.657 7.5 251 8.84315 251 10.5ZM248 22C249.657 22 251 20.6569 251 19C251 17.3431 249.657 16 248 16C246.343 16 245 17.3431 245 19C245 20.6569 246.343 22 248 22ZM251 27.5C251 29.1569 249.657 30.5 248 30.5C246.343 30.5 245 29.1569 245 27.5C245 25.8431 246.343 24.5 248 24.5C249.657 24.5 251 25.8431 251 27.5ZM248 39C249.657 39 251 37.6569 251 36C251 34.3431 249.657 33 248 33C246.343 33 245 34.3431 245 36C245 37.6569 246.343 39 248 39ZM251 44.5C251 46.1569 249.657 47.5 248 47.5C246.343 47.5 245 46.1569 245 44.5C245 42.8431 246.343 41.5 248 41.5C249.657 41.5 251 42.8431 251 44.5ZM248 56C249.657 56 251 54.6569 251 53C251 51.3431 249.657 50 248 50C246.343 50 245 51.3431 245 53C245 54.6569 246.343 56 248 56ZM251 61.5C251 63.1569 249.657 64.5 248 64.5C246.343 64.5 245 63.1569 245 61.5C245 59.8431 246.343 58.5 248 58.5C249.657 58.5 251 59.8431 251 61.5ZM248 73C249.657 73 251 71.6569 251 70C251 68.3431 249.657 67 248 67C246.343 67 245 68.3431 245 70C245 71.6569 246.343 73 248 73ZM251 78.5C251 80.1569 249.657 81.5 248 81.5C246.343 81.5 245 80.1569 245 78.5C245 76.8431 246.343 75.5 248 75.5C249.657 75.5 251 76.8431 251 78.5ZM248 90C249.657 90 251 88.6569 251 87C251 85.3431 249.657 84 248 84C246.343 84 245 85.3431 245 87C245 88.6569 246.343 90 248 90ZM251 95.5C251 97.1569 249.657 98.5 248 98.5C246.343 98.5 245 97.1569 245 95.5C245 93.8431 246.343 92.5 248 92.5C249.657 92.5 251 93.8431 251 95.5ZM248 107C249.657 107 251 105.657 251 104C251 102.343 249.657 101 248 101C246.343 101 245 102.343 245 104C245 105.657 246.343 107 248 107ZM251 112.5C251 114.157 249.657 115.5 248 115.5C246.343 115.5 245 114.157 245 112.5C245 110.843 246.343 109.5 248 109.5C249.657 109.5 251 110.843 251 112.5ZM248 124C249.657 124 251 122.657 251 121C251 119.343 249.657 118 248 118C246.343 118 245 119.343 245 121C245 122.657 246.343 124 248 124ZM251 129.5C251 131.157 249.657 132.5 248 132.5C246.343 132.5 245 131.157 245 129.5C245 127.843 246.343 126.5 248 126.5C249.657 126.5 251 127.843 251 129.5ZM248 141C249.657 141 251 139.657 251 138C251 136.343 249.657 135 248 135C246.343 135 245 136.343 245 138C245 139.657 246.343 141 248 141ZM251 146.5C251 148.157 249.657 149.5 248 149.5C246.343 149.5 245 148.157 245 146.5C245 144.843 246.343 143.5 248 143.5C249.657 143.5 251 144.843 251 146.5Z" fill="#FF6B6B"/>
</g>
<path fill-rule="evenodd" clip-rule="evenodd" d="M162.5 10H48.5096L17 38.3599V78.5V147H245.041C245.014 146.837 245 146.67 245 146.5C245 144.843 246.343 143.5 248 143.5C249.657 143.5 251 144.843 251 146.5C251 146.67 250.986 146.837 250.959 147H308V10H250.959C250.986 10.1626 251 10.3296 251 10.5C251 12.1569 249.657 13.5 248 13.5C246.343 13.5 245 12.1569 245 10.5C245 10.3296 245.014 10.1626 245.041 10H162.5ZM248 22C249.657 22 251 20.6569 251 19C251 17.3431 249.657 16 248 16C246.343 16 245 17.3431 245 19C245 20.6569 246.343 22 248 22ZM251 27.5C251 29.1569 249.657 30.5 248 30.5C246.343 30.5 245 29.1569 245 27.5C245 25.8431 246.343 24.5 248 24.5C249.657 24.5 251 25.8431 251 27.5ZM248 39C249.657 39 251 37.6569 251 36C251 34.3431 249.657 33 248 33C246.343 33 245 34.3431 245 36C245 37.6569 246.343 39 248 39ZM251 44.5C251 46.1569 249.657 47.5 248 47.5C246.343 47.5 245 46.1569 245 44.5C245 42.8431 246.343 41.5 248 41.5C249.657 41.5 251 42.8431 251 44.5ZM248 56C249.657 56 251 54.6569 251 53C251 51.3431 249.657 50 248 50C246.343 50 245 51.3431 245 53C245 54.6569 246.343 56 248 56ZM251 61.5C251 63.1569 249.657 64.5 248 64.5C246.343 64.5 245 63.1569 245 61.5C245 59.8431 246.343 58.5 248 58.5C249.657 58.5 251 59.8431 251 61.5ZM248 73C249.657 73 251 71.6569 251 70C251 68.3431 249.657 67 248 67C246.343 67 245 68.3431 245 70C245 71.6569 246.343 73 248 73ZM251 78.5C251 80.1569 249.657 81.5 248 81.5C246.343 81.5 245 80.1569 245 78.5C245 76.8431 246.343 75.5 248 75.5C249.657 75.5 251 76.8431 251 78.5ZM248 90C249.657 90 251 88.6569 251 87C251 85.3431 249.657 84 248 84C246.343 84 245 85.3431 245 87C245 88.6569 246.343 90 248 90ZM251 95.5C251 97.1569 249.657 98.5 248 98.5C246.343 98.5 245 97.1569 245 95.5C245 93.8431 246.343 92.5 248 92.5C249.657 92.5 251 93.8431 251 95.5ZM248 107C249.657 107 251 105.657 251 104C251 102.343 249.657 101 248 101C246.343 101 245 102.343 245 104C245 105.657 246.343 107 248 107ZM251 112.5C251 114.157 249.657 115.5 248 115.5C246.343 115.5 245 114.157 245 112.5C245 110.843 246.343 109.5 248 109.5C249.657 109.5 251 110.843 251 112.5ZM248 124C249.657 124 251 122.657 251 121C251 119.343 249.657 118 248 118C246.343 118 245 119.343 245 121C245 122.657 246.343 124 248 124ZM251 129.5C251 131.157 249.657 132.5 248 132.5C246.343 132.5 245 131.157 245 129.5C245 127.843 246.343 126.5 248 126.5C249.657 126.5 251 127.843 251 129.5ZM248 141C249.657 141 251 139.657 251 138C251 136.343 249.657 135 248 135C246.343 135 245 136.343 245 138C245 139.657 246.343 141 248 141Z" fill="white"/>
<circle cx="254.5" cy="60.5" r="35.5" transform="rotate(17.9657 254.5 60.5)" stroke="#FF6B6B" stroke-width="4"/>
<path d="M253.56 38.4343L258.09 41.3224C256.456 42.5797 254.738 43.8271 252.935 45.0646C251.163 46.3125 249.564 47.3534 248.138 48.1873L244.844 45.7001C245.819 45.0702 246.825 44.3452 247.862 43.525C248.941 42.6834 249.972 41.8264 250.956 40.9539C251.95 40.0498 252.818 39.2099 253.56 38.4343ZM263.901 46.0975L268.099 45.146C269.196 46.5179 270.299 48.0321 271.409 49.6885C272.551 51.3552 273.597 52.9911 274.548 54.5961C275.532 56.2114 276.266 57.6759 276.751 58.9896L272.175 60.1339C271.701 58.894 271.009 57.4607 270.1 55.8343C269.232 54.1864 268.249 52.5184 267.149 50.8303C266.092 49.1207 265.009 47.5431 263.901 46.0975ZM238.127 42.2607C240.294 42.9282 242.719 43.662 245.403 44.4622C248.119 45.2728 250.993 46.1347 254.026 47.048C257.091 47.9716 260.224 48.8999 263.425 49.833C266.627 50.766 269.797 51.6888 272.935 52.6012L271.59 56.2648C267.479 55.1073 263.354 53.9447 259.212 52.7769C255.07 51.6091 251.124 50.4872 247.373 49.411C243.632 48.3032 240.288 47.3239 237.34 46.4731L238.127 42.2607ZM234.025 49.0776L276.973 63.004L275.724 66.8566L232.776 52.9302L234.025 49.0776ZM254.688 62.1904L257.652 65.0439C256.138 65.499 254.46 65.8659 252.617 66.1445C250.817 66.4017 248.963 66.554 247.055 66.6012C245.158 66.6167 243.365 66.5787 241.678 66.4871C241.526 65.9824 241.279 65.3941 240.936 64.7223C240.635 64.029 240.32 63.436 239.989 62.9433C241.582 63.1094 243.269 63.201 245.051 63.2181C246.874 63.2137 248.618 63.1309 250.283 62.9697C251.989 62.787 253.457 62.5273 254.688 62.1904ZM257.606 69.0763L260.603 71.9928C258.68 72.7359 256.491 73.2703 254.038 73.5961C251.616 73.9322 249.093 74.0952 246.468 74.0851C243.875 74.0852 241.318 73.9744 238.797 73.7526C238.697 73.1947 238.523 72.5426 238.275 71.7962C238.036 71.0181 237.746 70.3458 237.404 69.7794C239.726 70.0766 242.131 70.2783 244.619 70.3844C247.108 70.4905 249.485 70.4552 251.75 70.2786C254.025 70.0702 255.977 69.6694 257.606 69.0763ZM261.902 76.2514L265.249 79.3863C262.593 80.7679 259.544 81.6889 256.1 82.1493C252.699 82.5883 249.031 82.6605 245.097 82.3659C241.194 82.0816 237.126 81.551 232.893 80.774C232.898 80.1099 232.823 79.3673 232.669 78.5464C232.515 77.7254 232.298 76.9893 232.019 76.338C235.947 77.1913 239.757 77.8137 243.45 78.2051C247.174 78.6067 250.606 78.6682 253.745 78.3895C256.916 78.1211 259.635 77.4084 261.902 76.2514ZM252.003 49.0727L256.071 51.6009C252.69 55.7608 248.785 58.9973 244.355 61.3105C239.958 63.634 235.316 65.1425 230.43 65.8361C230.311 65.447 230.118 64.9637 229.849 64.3862C229.613 63.8189 229.339 63.2571 229.029 62.701C228.761 62.1234 228.493 61.6513 228.227 61.2845C233.01 60.908 237.448 59.7016 241.543 57.6652C245.637 55.6288 249.124 52.7646 252.003 49.0727ZM263.125 59.5123C263.626 61.4268 264.395 63.3759 265.434 65.3596C266.515 67.322 267.8 69.1931 269.291 70.9729C270.781 72.7527 272.354 74.3316 274.01 75.7095C273.6 75.892 273.133 76.1436 272.609 76.4641C272.095 76.7529 271.591 77.0627 271.098 77.3936C270.648 77.7029 270.239 77.9909 269.872 78.2574C268.194 76.7322 266.614 74.9584 265.132 72.936C263.682 70.924 262.416 68.7787 261.332 66.5001C260.281 64.2318 259.472 61.972 258.905 59.7208L263.125 59.5123Z" fill="#FF6B6B"/>
<defs>
<filter id="filter0_d_127_1066" x="0" y="0" width="322" height="165" filterUnits="userSpaceOnUse" color-interpolation-filters="sRGB">
<feFlood flood-opacity="0" result="BackgroundImageFix"/>
<feColorMatrix in="SourceAlpha" type="matrix" values="0 0 0 0 0 0 0 0 0 0 0 0 0 0 0 0 0 0 127 0" result="hardAlpha"/>
<feOffset dy="4"/>
<feGaussianBlur stdDeviation="2"/>
<feComposite in2="hardAlpha" operator="out"/>
<feColorMatrix type="matrix" values="0 0 0 0 0 0 0 0 0 0 0 0 0 0 0 0 0 0 0.25 0"/>
<feBlend mode="normal" in2="BackgroundImageFix" result="effect1_dropShadow_127_1066"/>
<feBlend mode="normal" in="SourceGraphic" in2="effect1_dropShadow_127_1066" result="shape"/>
</filter>
</defs>
</svg>
